<svg xmlns="http://www.w3.org/2000/svg" viewBox="0 0 512 512">
  <defs>
    <linearGradient id="bg" x1="0%" x2="100%" y1="0%" y2="100%">
      <stop offset="0%" stop-color="#111820"/>
      <stop offset="100%" stop-color="#1c2733"/>
    </linearGradient>
    <linearGradient id="gold" x1="0%" x2="100%" y1="0%" y2="100%">
      <stop offset="0%" stop-color="#e8c97a"/>
      <stop offset="100%" stop-color="#c9a84c"/>
    </linearGradient>
  </defs>
  <rect width="512" height="512" rx="112" fill="url(#bg)"/>
  <circle cx="256" cy="256" r="180" fill="none" stroke="#3da99f" stroke-opacity="0.28" stroke-width="16"/>
  <path d="M303 124c-64 0-116 58-116 128s52 128 116 128c34 0 66-14 88-39-18 53-69 91-129 91-75 0-136-60-136-135s61-135 136-135c60 0 111 38 129 91-22-25-54-39-88-39z" fill="url(#gold)"/>
  <path d="M322 191l13 28 31 4-23 20 6 31-27-15-27 15 6-31-23-20 31-4z" fill="#3da99f"/>
  <text x="256" y="355" text-anchor="middle" font-family="Segoe UI, Arial, sans-serif" font-size="72" font-weight="700" fill="#e8e0d0">WS</text>
</svg>
